<svg xmlns="http://www.w3.org/2000/svg" viewBox="0 0 750 500"><g id="freepik--Plants--inject-93"><g style="opacity:0.30000000000000004"><path d="M29.16,325.36C32.88,327,42,326.78,42,326.78s-2-6-2.13-6.32c-2-4.18-8.31-11.08-13.45-10.39a6.14,6.14,0,0,0-4.93,7.7C22.33,321.33,26,324,29.16,325.36Z"></path><path d="M32.3,351.73c3.86.57,12-1.79,12.63-2a110.2,110.2,0,0,0,4.93,13.64c1.12,2.59,2.33,5.16,3.57,7.72-.74-1.09-1.41-2.05-1.52-2.18-3-3.5-10.95-8.49-15.72-6.46a6.14,6.14,0,0,0-2.72,8.72c1.76,3.21,6,4.8,9.41,5.3s10.44-1.37,12.28-1.88c.48,1,1,2,1.45,2.93,2.35,4.69,4.72,9.35,6.9,14,.77,1.64,1.47,3.28,2.18,4.92-.66-1-1.23-1.77-1.33-1.89-3-3.5-10.94-8.49-15.72-6.46a6.14,6.14,0,0,0-2.72,8.72c1.77,3.21,6,4.8,9.41,5.3s9.77-1.19,12-1.79c.67,1.7,1.35,3.4,1.92,5.08.37,1.15.8,2.24,1.1,3.42s.65,2.31,1,3.45c.54,2.21,1.1,4.5,1.56,6.67.34,1.51.63,3,.93,4.41-.75-1.63-2.28-4.81-2.44-5.06-2.46-3.92-9.53-10.05-14.56-8.77a6.14,6.14,0,0,0-4,8.21c1.26,3.44,5.19,5.64,8.5,6.66,3.64,1.11,11.71.09,12.71,0,.49,2.41.93,4.76,1.32,7,.87,4.9,1.52,9.3,2,13h3.4c-.59-3.85-1.36-8.43-2.39-13.59-.48-2.44-1-5-1.65-7.72a67.4,67.4,0,0,0,7.1-3.34c2.65,2.88,9.46,6.24,10.34,6.67-.93,2.28-1.85,4.48-2.75,6.55-1.89,4.33-3.67,8.17-5.25,11.43h3.68c1.35-3,2.84-6.44,4.4-10.24,1-2.3,1.92-4.79,2.89-7.35,1,.2,9,1.83,12.68,1,3.37-.77,7.46-2.68,9-6a6.14,6.14,0,0,0-3.39-8.49c-4.91-1.65-12.42,3.94-15.17,7.66-.16.22-1.66,2.81-2.57,4.45.39-1.05.78-2.06,1.17-3.15.79-2.14,1.5-4.29,2.29-6.61l1-3.44c.36-1.13.61-2.38.92-3.59.67-2.81,1.21-5.68,1.69-8.6,1.87.69,8.57,3,12,2.77s7.78-1.51,9.78-4.58a6.14,6.14,0,0,0-2.06-8.9c-4.61-2.38-12.88,2-16.16,5.28-.2.2-2.3,2.81-3.42,4.26.28-1.75.56-3.5.78-5.28.64-5.14,1.13-10.37,1.63-15.58.16-1.6.33-3.18.5-4.78.66.26,8.56,3.19,12.44,2.92,3.45-.24,7.78-1.51,9.78-4.58a6.14,6.14,0,0,0-2.06-8.9c-4.61-2.38-12.88,2-16.16,5.28-.25.24-3.25,4-4,5,.37-3.5.77-7,1.31-10.41a107.2,107.2,0,0,1,3-13.7c.31.12,8.53,3.22,12.51,2.94,3.45-.24,7.78-1.51,9.78-4.58a6.14,6.14,0,0,0-2.06-8.9c-4.62-2.38-12.88,2-16.16,5.28-.26.25-3.49,4.3-4,5.07.08-.26.13-.53.21-.79a79.6,79.6,0,0,1,5.43-13c1.18-2.31,2.44-4.45,3.7-6.5,1.48.73,8.25,4,11.85,4.17s7.9-.65,10.23-3.48a6.14,6.14,0,0,0-1.08-9.07c-4.32-2.87-13,.57-16.64,3.46-.19.16-2,2-3.33,3.32.59-.92,1.18-1.88,1.76-2.75,2.17-3.27,4.35-6.12,6.31-8.64,1.13-1.42,2.17-2.69,3.16-3.86,1.83,0,9.17-.25,12.38-1.76s6.71-4.21,7.47-7.8a6.14,6.14,0,0,0-5.14-7.55c-5.15-.56-11.28,6.51-13.17,10.74-.16.37-2,6.38-2,6.38h.11c-1,1.11-2,2.3-3.11,3.64-2,2.48-4.27,5.3-6.52,8.53A107.42,107.42,0,0,0,117,334.44a80,80,0,0,0-5.78,13,1,1,0,0,1,0,.17c0-1.52,0-5.77-.08-6.1-.6-4.59-4.45-13.12-9.55-14.06a6.13,6.13,0,0,0-7.08,5.77c-.3,3.65,2.34,7.3,4.93,9.61,2.91,2.6,11,5.12,11.63,5.31a110.36,110.36,0,0,0-3.42,14.1c-.49,2.77-.9,5.58-1.28,8.41,0-1.32,0-2.49-.07-2.66-.59-4.59-4.44-13.12-9.55-14.06a6.14,6.14,0,0,0-7.08,5.77c-.3,3.65,2.35,7.3,4.93,9.61s9.46,4.62,11.28,5.2c-.13,1.09-.28,2.17-.41,3.26-.62,5.2-1.22,10.4-2,15.48-.26,1.79-.58,3.54-.9,5.3,0-1.17,0-2.15-.06-2.3-.6-4.6-4.45-13.12-9.55-14.06A6.13,6.13,0,0,0,85.89,388c-.3,3.65,2.35,7.3,4.93,9.61s8.79,4.39,11,5.09c-.38,1.79-.75,3.58-1.2,5.3-.33,1.16-.57,2.31-1,3.46l-1.1,3.41c-.78,2.14-1.57,4.36-2.38,6.43-.56,1.44-1.11,2.81-1.67,4.19.28-1.78.76-5.28.77-5.57a23.81,23.81,0,0,0-3.2-11.6,7.76,7.76,0,0,0-.08-1.36,6.15,6.15,0,0,0-7.51-5.21c-5,1.34-8.19,10.14-8.43,14.76,0,.28.16,3.25.31,5.13-.26-1.09-.49-2.15-.76-3.27-.53-2.22-1.12-4.41-1.74-6.78l-1-3.43c-.32-1.15-.81-2.33-1.21-3.51-1-2.71-2.13-5.41-3.33-8.1,1.94-.46,8.8-2.22,11.56-4.33s5.66-5.55,5.63-9.21a6.14,6.14,0,0,0-6.63-6.29c-5.16.56-9.63,8.78-10.57,13.31-.06.29-.36,3.62-.5,5.45-.73-1.61-1.46-3.23-2.26-4.84-2.3-4.64-4.78-9.27-7.23-13.89q-1.12-2.13-2.22-4.26c.69-.16,8.89-2.06,12-4.43,2.75-2.11,5.66-5.55,5.63-9.22A6.13,6.13,0,0,0,67,352.52c-5.15.56-9.63,8.77-10.57,13.31-.07.34-.5,5.14-.55,6.36-1.62-3.13-3.21-6.26-4.66-9.41a108.49,108.49,0,0,1-5.06-13.07c.32-.08,8.9-2,12.06-4.45,2.75-2.11,5.66-5.55,5.63-9.22a6.13,6.13,0,0,0-6.63-6.28c-5.16.56-9.63,8.78-10.57,13.31-.07.36-.53,5.52-.55,6.46-.08-.26-.19-.52-.27-.78a79.5,79.5,0,0,1-2.62-13.81c-.29-2.58-.42-5.05-.5-7.47,1.63-.2,9.09-1.19,12.18-3.06s6.23-4.9,6.61-8.54a6.14,6.14,0,0,0-5.9-7c-5.19,0-10.54,7.67-12,12.08-.08.24-.6,2.76-.95,4.6,0-1.09-.05-2.21-.05-3.26,0-3.92.26-7.51.5-10.69.16-1.81.33-3.44.51-5,1.5-1,7.5-5.27,9.35-8.3s3.27-7.21,1.93-10.62a6.13,6.13,0,0,0-8.45-3.47c-4.61,2.38-5.82,11.66-5.06,16.22.06.4,1.8,6.46,1.88,6.4l.09-.06c-.2,1.46-.4,3-.58,4.76-.32,3.18-.65,6.77-.74,10.71A108.82,108.82,0,0,0,42.36,335a80.24,80.24,0,0,0,2.35,14,1,1,0,0,1,0,.16c-.81-1.28-3.21-4.79-3.43-5-3-3.5-10.95-8.49-15.72-6.46a6.14,6.14,0,0,0-2.72,8.72C24.65,349.65,28.88,351.24,32.3,351.73Z"></path><path d="M121.26,327.36c.08.05,1.65-6.05,1.71-6.45.64-4.58-.83-13.82-5.5-16.08a6.13,6.13,0,0,0-8.35,3.7c-1.25,3.44.33,7.66,2.21,10.57C113.54,322.51,121.25,327.36,121.26,327.36Z"></path></g><g style="opacity:0.30000000000000004"><path d="M615.74,325.36c3.72,1.63,12.82,1.42,12.83,1.42s-2-6-2.13-6.32c-2-4.18-8.31-11.08-13.45-10.39a6.14,6.14,0,0,0-4.93,7.7C608.91,321.33,612.57,324,615.74,325.36Z"></path><path d="M618.88,351.73c3.86.57,12-1.79,12.63-2a110.2,110.2,0,0,0,4.93,13.64c1.12,2.59,2.33,5.16,3.57,7.72-.74-1.09-1.41-2.05-1.52-2.18-3-3.5-11-8.49-15.72-6.46a6.14,6.14,0,0,0-2.72,8.72c1.76,3.21,6,4.8,9.41,5.3s10.44-1.37,12.28-1.88c.48,1,1,2,1.45,2.93,2.35,4.69,4.72,9.35,6.9,14,.77,1.64,1.47,3.28,2.18,4.92-.66-1-1.23-1.77-1.33-1.89-3-3.5-10.94-8.49-15.72-6.46a6.14,6.14,0,0,0-2.72,8.72c1.77,3.21,6,4.8,9.41,5.3s9.77-1.19,12-1.79c.67,1.7,1.35,3.4,1.92,5.08.37,1.15.8,2.24,1.1,3.42s.65,2.31,1,3.45c.54,2.21,1.1,4.5,1.56,6.67.34,1.51.63,3,.93,4.41-.75-1.63-2.28-4.81-2.44-5.06-2.46-3.92-9.53-10.05-14.56-8.77a6.14,6.14,0,0,0-4,8.21c1.26,3.44,5.19,5.64,8.5,6.66,3.64,1.11,11.71.09,12.71,0,.49,2.41.93,4.76,1.32,7,.87,4.9,1.52,9.3,2,13h3.4c-.59-3.85-1.36-8.43-2.39-13.59-.48-2.44-1-5-1.65-7.72a67.4,67.4,0,0,0,7.1-3.34c2.65,2.88,9.46,6.24,10.34,6.67-.93,2.28-1.85,4.48-2.75,6.55-1.89,4.33-3.67,8.17-5.25,11.43h3.68c1.35-3,2.84-6.44,4.4-10.24,1-2.3,1.92-4.79,2.89-7.35,1,.2,9,1.83,12.68,1,3.37-.77,7.46-2.68,9-6a6.14,6.14,0,0,0-3.39-8.49c-4.91-1.65-12.42,3.94-15.17,7.66-.16.22-1.66,2.81-2.57,4.45.39-1.05.78-2.06,1.17-3.15.79-2.14,1.5-4.29,2.29-6.61l1-3.44c.36-1.13.61-2.38.92-3.59.67-2.81,1.21-5.68,1.69-8.6,1.87.69,8.57,3,12,2.77s7.78-1.51,9.78-4.58a6.14,6.14,0,0,0-2.06-8.9c-4.61-2.38-12.88,2-16.16,5.28-.2.2-2.3,2.81-3.42,4.26.28-1.75.56-3.5.78-5.28.64-5.14,1.13-10.37,1.63-15.58.16-1.6.33-3.18.5-4.78.66.26,8.56,3.19,12.44,2.92,3.45-.24,7.78-1.51,9.78-4.58a6.14,6.14,0,0,0-2.06-8.9c-4.61-2.38-12.88,2-16.16,5.28-.25.24-3.25,4-4,5,.37-3.5.77-7,1.31-10.41a107.2,107.2,0,0,1,3-13.7c.31.12,8.53,3.22,12.51,2.94,3.45-.24,7.78-1.51,9.78-4.58a6.14,6.14,0,0,0-2.06-8.9c-4.62-2.38-12.88,2-16.16,5.28-.26.25-3.49,4.3-4,5.07.08-.26.13-.53.21-.79a79.6,79.6,0,0,1,5.43-13c1.18-2.31,2.44-4.45,3.7-6.5,1.48.73,8.25,4,11.85,4.17s7.9-.65,10.23-3.48A6.14,6.14,0,0,0,729,320c-4.32-2.87-13,.57-16.64,3.46-.19.16-2,2-3.33,3.32.59-.92,1.18-1.88,1.76-2.75,2.17-3.27,4.35-6.12,6.31-8.64,1.13-1.42,2.17-2.69,3.17-3.86,1.82,0,9.16-.25,12.37-1.76s6.71-4.21,7.47-7.8a6.14,6.14,0,0,0-5.14-7.55c-5.15-.56-11.28,6.51-13.17,10.74-.16.37-2.05,6.38-2,6.38H720c-1,1.11-2,2.3-3.11,3.64-2,2.48-4.27,5.3-6.52,8.53a107.42,107.42,0,0,0-6.77,10.78,79.11,79.11,0,0,0-5.77,13l-.05.17c0-1.52,0-5.77-.08-6.1-.6-4.59-4.45-13.12-9.55-14.06a6.13,6.13,0,0,0-7.08,5.77c-.3,3.65,2.35,7.3,4.93,9.61,2.91,2.6,11,5.12,11.63,5.31a110.36,110.36,0,0,0-3.42,14.1c-.49,2.77-.9,5.58-1.28,8.41,0-1.32,0-2.49-.07-2.66-.6-4.59-4.44-13.12-9.55-14.06a6.14,6.14,0,0,0-7.08,5.77c-.3,3.65,2.35,7.3,4.93,9.61s9.46,4.62,11.28,5.2c-.13,1.09-.28,2.17-.41,3.26-.62,5.2-1.22,10.4-2,15.48-.26,1.79-.58,3.54-.9,5.3,0-1.17,0-2.15-.06-2.3-.6-4.6-4.45-13.12-9.55-14.06a6.13,6.13,0,0,0-7.08,5.77c-.3,3.65,2.35,7.3,4.93,9.61s8.79,4.39,11,5.09c-.38,1.79-.75,3.58-1.2,5.3-.33,1.16-.57,2.31-1,3.46l-1.1,3.41c-.78,2.14-1.57,4.36-2.38,6.43-.56,1.44-1.11,2.81-1.67,4.19.28-1.78.76-5.28.77-5.57a23.81,23.81,0,0,0-3.2-11.6,7.76,7.76,0,0,0-.08-1.36,6.15,6.15,0,0,0-7.51-5.21c-5,1.34-8.19,10.14-8.43,14.76,0,.28.16,3.25.31,5.13-.26-1.09-.49-2.15-.76-3.27-.53-2.22-1.12-4.41-1.74-6.78l-1-3.43c-.32-1.15-.81-2.33-1.21-3.51-1-2.71-2.13-5.41-3.33-8.1,1.94-.46,8.8-2.22,11.56-4.33S672,386.63,672,383a6.14,6.14,0,0,0-6.63-6.29c-5.16.56-9.63,8.78-10.57,13.31-.06.29-.36,3.62-.5,5.45-.73-1.61-1.46-3.23-2.26-4.84-2.3-4.64-4.78-9.27-7.23-13.89q-1.12-2.13-2.22-4.26c.69-.16,8.89-2.06,12-4.43,2.75-2.11,5.66-5.55,5.63-9.22a6.13,6.13,0,0,0-6.63-6.28c-5.15.56-9.63,8.77-10.57,13.31-.07.34-.5,5.14-.55,6.36-1.62-3.13-3.21-6.26-4.66-9.41a108.49,108.49,0,0,1-5.06-13.07c.32-.08,8.9-2,12.06-4.45,2.75-2.11,5.66-5.55,5.63-9.22a6.13,6.13,0,0,0-6.63-6.28c-5.16.56-9.63,8.78-10.57,13.31-.07.36-.53,5.52-.55,6.46-.08-.26-.19-.52-.27-.78a79.5,79.5,0,0,1-2.62-13.81c-.29-2.58-.42-5.05-.5-7.47,1.63-.2,9.09-1.19,12.18-3.06s6.23-4.9,6.61-8.54a6.14,6.14,0,0,0-5.9-7c-5.19,0-10.54,7.67-12,12.08-.08.24-.6,2.76-1,4.6,0-1.09,0-2.21,0-3.26,0-3.92.26-7.51.5-10.69.16-1.81.33-3.44.51-5,1.5-1,7.5-5.27,9.35-8.3s3.27-7.21,1.93-10.62a6.13,6.13,0,0,0-8.45-3.47c-4.61,2.38-5.82,11.66-5.06,16.22.06.4,1.8,6.46,1.88,6.4l.09-.06c-.2,1.46-.4,3-.58,4.76-.32,3.18-.65,6.77-.74,10.71a108.82,108.82,0,0,0,.31,12.72,80.24,80.24,0,0,0,2.35,14,1,1,0,0,1,.05.16c-.81-1.28-3.21-4.79-3.43-5-3-3.5-10.95-8.49-15.72-6.46a6.14,6.14,0,0,0-2.72,8.72C611.23,349.65,615.46,351.24,618.88,351.73Z"></path><path d="M707.84,327.36c.08.05,1.65-6.05,1.71-6.45.64-4.58-.83-13.82-5.5-16.08a6.13,6.13,0,0,0-8.35,3.7c-1.25,3.44.33,7.66,2.21,10.57C700.12,322.51,707.83,327.36,707.84,327.36Z"></path></g></g><g id="freepik--Floor--inject-93"><line x1="19.26" y1="444.34" x2="733.85" y2="444.34" style="fill:none;stroke:#263238;stroke-linecap:round;stroke-linejoin:round"></line></g><g id="freepik--Codes--inject-93"><g style="opacity:0.30000000000000004"><path d="M133.58,68.1h-77a1,1,0,0,1,0-2h77a1,1,0,0,1,0,2Z"></path><path d="M96.8,91.13H56.62a1,1,0,0,1,0-2H96.8a1,1,0,1,1,0,2Z"></path><path d="M94.08,78.47H56.62a1,1,0,0,1,0-2H94.08a1,1,0,1,1,0,2Z"></path><path d="M122,78.47H102.25a1,1,0,0,1,0-2H122a1,1,0,0,1,0,2Z"></path><path d="M153.33,78.47H133.58a1,1,0,0,1,0-2h19.75a1,1,0,0,1,0,2Z"></path><path d="M94.08,100.92H56.62a1,1,0,1,1,0-2H94.08a1,1,0,0,1,0,2Z"></path><path d="M122,100.92H102.25a1,1,0,0,1,0-2H122a1,1,0,0,1,0,2Z"></path><path d="M153.33,100.92H133.58a1,1,0,0,1,0-2h19.75a1,1,0,0,1,0,2Z"></path><path d="M94.08,123.37H56.62a1,1,0,0,1,0-2H94.08a1,1,0,0,1,0,2Z"></path><path d="M122,123.37H102.25a1,1,0,0,1,0-2H122a1,1,0,0,1,0,2Z"></path><path d="M153.33,123.37H133.58a1,1,0,0,1,0-2h19.75a1,1,0,1,1,0,2Z"></path><path d="M108.27,133.16H79.78a1,1,0,0,1,0-2h28.49a1,1,0,1,1,0,2Z"></path><path d="M129.5,133.16h-15a1,1,0,1,1,0-2h15a1,1,0,0,1,0,2Z"></path><path d="M153.33,133.16h-15a1,1,0,0,1,0-2h15a1,1,0,0,1,0,2Z"></path><path d="M108.27,145.25H79.78a1,1,0,0,1,0-2h28.49a1,1,0,0,1,0,2Z"></path><path d="M129.5,145.25h-15a1,1,0,0,1,0-2h15a1,1,0,0,1,0,2Z"></path><path d="M153.33,145.25h-15a1,1,0,0,1,0-2h15a1,1,0,1,1,0,2Z"></path><path d="M133.58,158.49h-77a1,1,0,0,1,0-2h77a1,1,0,1,1,0,2Z"></path><path d="M96.8,181.52H56.62a1,1,0,0,1,0-2H96.8a1,1,0,0,1,0,2Z"></path><path d="M94.08,168.86H56.62a1,1,0,0,1,0-2H94.08a1,1,0,0,1,0,2Z"></path><path d="M122,168.86H102.25a1,1,0,0,1,0-2H122a1,1,0,0,1,0,2Z"></path><path d="M153.33,168.86H133.58a1,1,0,0,1,0-2h19.75a1,1,0,1,1,0,2Z"></path><path d="M94.08,191.31H56.62a1,1,0,0,1,0-2H94.08a1,1,0,0,1,0,2Z"></path><path d="M122,191.31H102.25a1,1,0,0,1,0-2H122a1,1,0,0,1,0,2Z"></path><path d="M153.33,191.31H133.58a1,1,0,1,1,0-2h19.75a1,1,0,0,1,0,2Z"></path><path d="M94.08,213.76H56.62a1,1,0,0,1,0-2H94.08a1,1,0,0,1,0,2Z"></path><path d="M122,213.76H102.25a1,1,0,0,1,0-2H122a1,1,0,0,1,0,2Z"></path><path d="M153.33,213.76H133.58a1,1,0,0,1,0-2h19.75a1,1,0,1,1,0,2Z"></path><path d="M108.27,223.55H79.78a1,1,0,0,1,0-2h28.49a1,1,0,0,1,0,2Z"></path><path d="M129.5,223.55h-15a1,1,0,0,1,0-2h15a1,1,0,0,1,0,2Z"></path><path d="M153.33,223.55h-15a1,1,0,0,1,0-2h15a1,1,0,0,1,0,2Z"></path><path d="M108.27,235.64H79.78a1,1,0,1,1,0-2h28.49a1,1,0,0,1,0,2Z"></path><path d="M129.5,235.64h-15a1,1,0,0,1,0-2h15a1,1,0,0,1,0,2Z"></path><path d="M153.33,235.64h-15a1,1,0,0,1,0-2h15a1,1,0,1,1,0,2Z"></path><path d="M58.72,53.29,66,49.57v1.07l-6.1,3.06v0L66,56.79v1.07l-7.24-3.73Z"></path><path d="M66.46,58.68l-8.24-4.24V53l8.24-4.24V51l-5.52,2.76,5.52,2.77Zm-7.24-4.85.14.07v-.37l-.14.07Z"></path><path d="M70.28,58.49l4.35-11.31H75.7L71.33,58.49Z"></path><polygon points="71.67 58.99 69.56 58.99 74.29 46.68 76.42 46.68 71.67 58.99"></polygon><path d="M87.22,54.15,80,57.86V56.79l6.14-3.06v0L80,50.64V49.57l7.23,3.71Z"></path><path d="M79.49,58.68v-2.2L85,53.71,79.49,51v-2.2L87.72,53v1.49Zm7.14-5.14v.35l.09,0v-.26Z"></path></g><g style="opacity:0.30000000000000004"><path d="M393.06,68.1h-77a1,1,0,0,1,0-2h77a1,1,0,0,1,0,2Z"></path><path d="M356.28,91.13H316.1a1,1,0,0,1,0-2h40.18a1,1,0,0,1,0,2Z"></path><path d="M353.56,78.47H316.1a1,1,0,0,1,0-2h37.46a1,1,0,0,1,0,2Z"></path><path d="M381.48,78.47H361.73a1,1,0,0,1,0-2h19.75a1,1,0,0,1,0,2Z"></path><path d="M412.81,78.47H393.06a1,1,0,0,1,0-2h19.75a1,1,0,0,1,0,2Z"></path><path d="M353.56,100.92H316.1a1,1,0,0,1,0-2h37.46a1,1,0,0,1,0,2Z"></path><path d="M381.48,100.92H361.73a1,1,0,0,1,0-2h19.75a1,1,0,0,1,0,2Z"></path><path d="M412.81,100.92H393.06a1,1,0,0,1,0-2h19.75a1,1,0,0,1,0,2Z"></path><path d="M353.56,123.37H316.1a1,1,0,0,1,0-2h37.46a1,1,0,0,1,0,2Z"></path><path d="M381.48,123.37H361.73a1,1,0,0,1,0-2h19.75a1,1,0,0,1,0,2Z"></path><path d="M412.81,123.37H393.06a1,1,0,0,1,0-2h19.75a1,1,0,1,1,0,2Z"></path><path d="M367.75,133.16H339.26a1,1,0,0,1,0-2h28.49a1,1,0,0,1,0,2Z"></path><path d="M389,133.16H374a1,1,0,0,1,0-2h15a1,1,0,0,1,0,2Z"></path><path d="M412.81,133.16h-15a1,1,0,0,1,0-2h15a1,1,0,0,1,0,2Z"></path><path d="M367.75,145.25H339.26a1,1,0,0,1,0-2h28.49a1,1,0,0,1,0,2Z"></path><path d="M389,145.25H374a1,1,0,0,1,0-2h15a1,1,0,0,1,0,2Z"></path><path d="M412.81,145.25h-15a1,1,0,1,1,0-2h15a1,1,0,0,1,0,2Z"></path><path d="M393.06,158.49h-77a1,1,0,0,1,0-2h77a1,1,0,0,1,0,2Z"></path><path d="M356.28,181.52H316.1a1,1,0,0,1,0-2h40.18a1,1,0,0,1,0,2Z"></path><path d="M353.56,168.86H316.1a1,1,0,0,1,0-2h37.46a1,1,0,1,1,0,2Z"></path><path d="M381.48,168.86H361.73a1,1,0,0,1,0-2h19.75a1,1,0,0,1,0,2Z"></path><path d="M412.81,168.86H393.06a1,1,0,0,1,0-2h19.75a1,1,0,1,1,0,2Z"></path><path d="M353.56,191.31H316.1a1,1,0,0,1,0-2h37.46a1,1,0,0,1,0,2Z"></path><path d="M381.48,191.31H361.73a1,1,0,0,1,0-2h19.75a1,1,0,0,1,0,2Z"></path><path d="M412.81,191.31H393.06a1,1,0,0,1,0-2h19.75a1,1,0,0,1,0,2Z"></path><path d="M353.56,213.76H316.1a1,1,0,0,1,0-2h37.46a1,1,0,0,1,0,2Z"></path><path d="M381.48,213.76H361.73a1,1,0,0,1,0-2h19.75a1,1,0,0,1,0,2Z"></path><path d="M412.81,213.76H393.06a1,1,0,1,1,0-2h19.75a1,1,0,0,1,0,2Z"></path><path d="M367.75,223.55H339.26a1,1,0,0,1,0-2h28.49a1,1,0,0,1,0,2Z"></path><path d="M389,223.55H374a1,1,0,0,1,0-2h15a1,1,0,0,1,0,2Z"></path><path d="M412.81,223.55h-15a1,1,0,0,1,0-2h15a1,1,0,0,1,0,2Z"></path><path d="M367.75,235.64H339.26a1,1,0,0,1,0-2h28.49a1,1,0,0,1,0,2Z"></path><path d="M389,235.64H374a1,1,0,1,1,0-2h15a1,1,0,0,1,0,2Z"></path><path d="M412.81,235.64h-15a1,1,0,0,1,0-2h15a1,1,0,1,1,0,2Z"></path><path d="M318.2,53.29l7.24-3.72v1.07l-6.1,3.06v0l6.1,3.06v1.07l-7.24-3.73Z"></path><path d="M325.94,58.68l-8.24-4.24V53l8.24-4.24V51l-5.52,2.76,5.52,2.77Zm-7.24-4.85.14.07v-.37l-.14.07Z"></path><path d="M329.76,58.49l4.36-11.31h1.06l-4.37,11.31Z"></path><polygon points="331.15 58.99 329.04 58.99 333.77 46.68 335.9 46.68 331.15 58.99"></polygon><path d="M346.7,54.15l-7.23,3.71V56.79l6.14-3.06v0l-6.14-3.06V49.57l7.23,3.71Z"></path><path d="M339,58.68v-2.2l5.55-2.77L339,51v-2.2L347.21,53v1.49Zm7.14-5.14v.35l.1,0v-.26Z"></path></g></g><g id="freepik--Gears--inject-93"><g style="opacity:0.30000000000000004"><path d="M250.84,96.88V87.17l-9.71-1.08a23.28,23.28,0,0,0-2.37-5.78l6.12-7.67L238,65.77l-7.62,6.11a23.34,23.34,0,0,0-5.77-2.42l-1.08-9.75h-9.72l-1.08,9.71A23.28,23.28,0,0,0,207,71.79l-7.66-6.12-6.87,6.87,6.1,7.62a23.34,23.34,0,0,0-2.42,5.77L186.37,87v9.72l9.7,1.08a22.93,22.93,0,0,0,2.38,5.78l-6.13,7.66,6.87,6.87,7.63-6.1a23.27,23.27,0,0,0,5.76,2.42l1.09,9.74h9.71l1.08-9.7a22.93,22.93,0,0,0,5.78-2.38l7.67,6.13,6.87-6.87-6.11-7.63A23.27,23.27,0,0,0,241.09,98Zm-32.24,6.66A11.6,11.6,0,1,1,230.2,92,11.59,11.59,0,0,1,218.6,103.54Z" style="fill:none;stroke:#000;stroke-miterlimit:10"></path><path d="M289,77.38,287.94,71l-6.54.36a15.32,15.32,0,0,0-2.22-3.56L282.39,62l-5.31-3.78-4.38,4.88a15.47,15.47,0,0,0-4.08-1l-1.8-6.33-6.43,1.08.36,6.54a15.63,15.63,0,0,0-3.56,2.21l-5.76-3.2-3.78,5.3,4.88,4.38a15.66,15.66,0,0,0-1,4.08L245.24,78l1.08,6.43,6.54-.36a15.69,15.69,0,0,0,2.21,3.57l-3.2,5.75,5.31,3.79,4.37-4.89a15.27,15.27,0,0,0,4.08,1l1.8,6.33,6.43-1.07L273.5,92a15.35,15.35,0,0,0,3.57-2.21L282.82,93l3.79-5.31-4.89-4.38a15.18,15.18,0,0,0,1-4.08Zm-20.61,8a7.78,7.78,0,1,1,6.39-9A7.78,7.78,0,0,1,268.41,85.36Z" style="fill:none;stroke:#000;stroke-miterlimit:10"></path></g><g style="opacity:0.30000000000000004"><path d="M636.07,124.39V106.92L618.63,105a41.59,41.59,0,0,0-4.28-10.39l11-13.78L613,68.46l-13.71,11a41.83,41.83,0,0,0-10.37-4.34l-2-17.52H569.53L567.59,75a41.51,41.51,0,0,0-10.4,4.28l-13.77-11L531.07,80.62l11,13.72a41.62,41.62,0,0,0-4.35,10.36l-17.52,2v17.47l17.44,1.94a41.59,41.59,0,0,0,4.28,10.39l-11,13.77,12.35,12.35,13.72-11A41.6,41.6,0,0,0,567.3,156l2,17.52h17.47L588.66,156a41.44,41.44,0,0,0,10.39-4.28l13.78,11,12.35-12.35-11-13.72a41.6,41.6,0,0,0,4.34-10.36Zm-58,12A20.84,20.84,0,1,1,599,115.52,20.84,20.84,0,0,1,578.12,136.36Z" style="fill:none;stroke:#000;stroke-miterlimit:10"></path><path d="M704.71,89.33l-1.94-11.56L691,78.42A27.68,27.68,0,0,0,687,72l5.76-10.34-9.54-6.81-7.87,8.78A27.86,27.86,0,0,0,668,61.92l-3.23-11.39-11.56,1.94.64,11.76a27.83,27.83,0,0,0-6.4,4l-10.34-5.77L630.34,72l8.78,7.86a28.44,28.44,0,0,0-1.73,7.35L626,90.43,627.94,102l11.77-.65a27.68,27.68,0,0,0,4,6.41l-5.77,10.34,9.55,6.81,7.86-8.78a27.93,27.93,0,0,0,7.35,1.72l3.23,11.39,11.56-1.94-.65-11.76a27.89,27.89,0,0,0,6.41-4l10.34,5.77,6.81-9.55-8.78-7.86a28,28,0,0,0,1.72-7.35Zm-37,14.35a14,14,0,1,1,11.49-16.11A14,14,0,0,1,667.67,103.68Z" style="fill:none;stroke:#000;stroke-miterlimit:10"></path></g></g><g id="freepik--device-1--inject-93"><path d="M158.27,112.93H612.94a10.46,10.46,0,0,1,10.46,10.46V421.63a0,0,0,0,1,0,0H147.81a0,0,0,0,1,0,0V123.39a10.46,10.46,0,0,1,10.46-10.46Z" style="fill:#c9c9c9;stroke:#263238;stroke-linecap:round;stroke-linejoin:round"></path><rect x="223.27" y="406.76" width="326.85" height="16.1" style="fill:#263238;stroke:#263238;stroke-linecap:round;stroke-linejoin:round"></rect><rect x="223.27" y="414.52" width="326.85" height="8.35" style="fill:#fff;stroke:#263238;stroke-linecap:round;stroke-linejoin:round"></rect><path d="M109.35,432.41s5.37,6.56,21.47,11.93H642.56s11.93-3,17.3-11.33Z" style="fill:#263238;stroke:#263238;stroke-linecap:round;stroke-linejoin:round"></path><rect x="108.26" y="420.66" width="552.76" height="12.54" rx="1.89" style="fill:#c9c9c9;stroke:#263238;stroke-linecap:round;stroke-linejoin:round"></rect><circle cx="385.5" cy="122.27" r="4.17" style="fill:#263238"></circle><rect x="167.1" y="137.05" width="437" height="246.96" style="fill:#263238"></rect><polygon points="604.1 384 604.1 173.2 242.62 384 604.1 384" style="fill:#fff;opacity:0.30000000000000004"></polygon><path d="M405.23,250.18V235L390,233.27a36.16,36.16,0,0,0-3.72-9.05l9.59-12-10.76-10.76L373.2,211a36.71,36.71,0,0,0-9-3.78L362.47,192H347.25l-1.69,15.19a36.19,36.19,0,0,0-9.05,3.73l-12-9.6-10.76,10.76L323.31,224a36,36,0,0,0-3.79,9l-15.26,1.69v15.22l15.19,1.69a36.19,36.19,0,0,0,3.73,9.05l-9.6,12,10.76,10.76,12-9.55a36.39,36.39,0,0,0,9,3.78L347,292.93h15.22l1.69-15.19A36,36,0,0,0,373,274l12,9.6,10.75-10.76-9.55-11.94a36.33,36.33,0,0,0,3.78-9Zm-50.49,10.43a18.16,18.16,0,1,1,18.16-18.16A18.16,18.16,0,0,1,354.74,260.61Z" style="fill:#FF3D3D;stroke:#263238;stroke-linecap:round;stroke-linejoin:round"></path><path d="M465,219.64l-1.69-10.08-10.25.57a23.65,23.65,0,0,0-3.47-5.58l5-9-8.32-5.93-6.85,7.65a24.62,24.62,0,0,0-6.39-1.51l-2.82-9.91-10.07,1.68.56,10.25a24.4,24.4,0,0,0-5.58,3.47l-9-5-5.93,8.31,7.65,6.85a24.18,24.18,0,0,0-1.5,6.4l-9.92,2.81,1.69,10.08,10.24-.57a24.32,24.32,0,0,0,3.47,5.58l-5,9,8.31,5.93L422,243a24.29,24.29,0,0,0,6.4,1.51l2.82,9.91,10.07-1.68-.56-10.25a24.4,24.4,0,0,0,5.58-3.47l9,5,5.93-8.32-7.65-6.85a24.58,24.58,0,0,0,1.5-6.4Zm-32.27,12.5a12.19,12.19,0,1,1,10-14A12.18,12.18,0,0,1,432.75,232.14Z" style="fill:#fff;stroke:#263238;stroke-linecap:round;stroke-linejoin:round"></path><path d="M293.18,331a6.46,6.46,0,0,1-3.57-.87,4.76,4.76,0,0,1-1.91-2.49,11.47,11.47,0,0,1-.57-3.8v-8.37a10.79,10.79,0,0,1,.58-3.75,4.72,4.72,0,0,1,1.91-2.4,6.67,6.67,0,0,1,3.56-.83,6.39,6.39,0,0,1,3.54.85,4.74,4.74,0,0,1,1.89,2.4,10.58,10.58,0,0,1,.59,3.73v8.39a11,11,0,0,1-.59,3.76,5,5,0,0,1-1.89,2.5A6.22,6.22,0,0,1,293.18,331Zm0-2.42A2.89,2.89,0,0,0,295,328a2.44,2.44,0,0,0,.84-1.41,9.09,9.09,0,0,0,.22-2.14V314.8a8.65,8.65,0,0,0-.22-2.11,2.31,2.31,0,0,0-.84-1.36,3,3,0,0,0-1.85-.48,3.09,3.09,0,0,0-1.87.48,2.33,2.33,0,0,0-.86,1.36,9.18,9.18,0,0,0-.22,2.11v9.68a9.65,9.65,0,0,0,.22,2.14,2.46,2.46,0,0,0,.86,1.41A3,3,0,0,0,293.18,328.54Z" style="fill:#b8b8b8"></path><path d="M302.22,330.72V308.64h5.48a6.09,6.09,0,0,1,3.18.72,4.26,4.26,0,0,1,1.73,2.09,9,9,0,0,1,.54,3.3,6.9,6.9,0,0,1-.61,3,4.41,4.41,0,0,1-1.81,2,5.94,5.94,0,0,1-3,.69H305.3v10.28Zm3.08-12.48h1.42a5.92,5.92,0,0,0,2.1-.3,1.91,1.91,0,0,0,1.09-1.05,5.43,5.43,0,0,0,.33-2.12,9.89,9.89,0,0,0-.23-2.42,1.72,1.72,0,0,0-1-1.17,6,6,0,0,0-2.29-.33H305.3Z" style="fill:#b8b8b8"></path><path d="M315.31,330.72V308.64h8.55v2.29h-5.47v7.31h4.44v2.18h-4.44v8.09h5.53v2.21Z" style="fill:#b8b8b8"></path><path d="M326.4,330.72V308.64h4.44a9.78,9.78,0,0,1,3.65.59,4.09,4.09,0,0,1,2.14,1.88,7.06,7.06,0,0,1,.7,3.39,8.86,8.86,0,0,1-.28,2.33,4.45,4.45,0,0,1-.87,1.77,3.32,3.32,0,0,1-1.58,1l3.14,11.07h-3l-2.89-10.36h-2.4v10.36Zm3.08-12.57h1.17a5.83,5.83,0,0,0,2.13-.32,2.18,2.18,0,0,0,1.19-1.12,5.09,5.09,0,0,0,.39-2.21,4.39,4.39,0,0,0-.71-2.79,3.58,3.58,0,0,0-2.81-.86h-1.36Z" style="fill:#b8b8b8"></path><path d="M339.34,330.72,344,308.64h3l4.72,22.08H348.8l-1-5.56H343.3l-1.07,5.56ZM343.7,323h3.68L345.53,313Z" style="fill:#b8b8b8"></path><path d="M355.5,330.72V310.93h-3.73v-2.29h10.44v2.29h-3.63v19.79Z" style="fill:#b8b8b8"></path><path d="M364.5,330.72V308.64h3v22.08Z" style="fill:#b8b8b8"></path><path d="M371.09,330.72V308.64h2.1l6.27,14.67V308.64H382v22.08h-2l-6.35-15.07v15.07Z" style="fill:#b8b8b8"></path><path d="M390.74,331a5.52,5.52,0,0,1-3.31-.89,4.9,4.9,0,0,1-1.8-2.57,13.09,13.09,0,0,1-.56-4.06v-7.39a14.6,14.6,0,0,1,.51-4.13,4.61,4.61,0,0,1,1.8-2.6,6.23,6.23,0,0,1,3.61-.9,6.88,6.88,0,0,1,3.34.7,4.1,4.1,0,0,1,1.84,2.12,9.87,9.87,0,0,1,.57,3.61v.82h-2.89V315a11.75,11.75,0,0,0-.19-2.36,2.22,2.22,0,0,0-.78-1.36,3,3,0,0,0-1.84-.45,2.65,2.65,0,0,0-2,.63,2.9,2.9,0,0,0-.77,1.7,17.83,17.83,0,0,0-.15,2.44v8.18a13,13,0,0,0,.23,2.64,2.64,2.64,0,0,0,.89,1.58,2.89,2.89,0,0,0,1.85.52A2.76,2.76,0,0,0,393,328a3.16,3.16,0,0,0,.9-1.69,13.62,13.62,0,0,0,.24-2.78V322h-2.81v-2.18h5.59v10.93H395l-.3-2.54a4.64,4.64,0,0,1-1.37,2A3.79,3.79,0,0,1,390.74,331Z" style="fill:#b8b8b8"></path><path d="M411.51,331a5.82,5.82,0,0,1-3.18-.81,5.22,5.22,0,0,1-1.92-2.27,9.43,9.43,0,0,1-.76-3.35l2.72-.73a12.84,12.84,0,0,0,.37,2.26,4.1,4.1,0,0,0,.94,1.78,2.38,2.38,0,0,0,1.83.7,2.32,2.32,0,0,0,1.81-.67,2.73,2.73,0,0,0,.61-1.92,3.89,3.89,0,0,0-.68-2.41,12,12,0,0,0-1.71-1.84l-3.71-3.27a6.26,6.26,0,0,1-1.61-2.09,6.74,6.74,0,0,1-.52-2.79,5,5,0,0,1,1.39-3.76,5.25,5.25,0,0,1,3.79-1.34,7.39,7.39,0,0,1,2.31.34,4.14,4.14,0,0,1,1.66,1,5.15,5.15,0,0,1,1.06,1.79,10.05,10.05,0,0,1,.53,2.52l-2.61.71a11.71,11.71,0,0,0-.33-2,3,3,0,0,0-.86-1.47,2.53,2.53,0,0,0-1.76-.56,2.45,2.45,0,0,0-1.78.62,2.36,2.36,0,0,0-.64,1.81,3.55,3.55,0,0,0,.34,1.66,4.74,4.74,0,0,0,1.1,1.34l3.73,3.27a11.22,11.22,0,0,1,2.21,2.6,6.54,6.54,0,0,1,1,3.58,5.61,5.61,0,0,1-.68,2.82,4.68,4.68,0,0,1-1.87,1.82A5.89,5.89,0,0,1,411.51,331Z" style="fill:#b8b8b8"></path><path d="M422.57,330.72v-7.8l-4.77-14.28h2.87l3.38,10.66,3.32-10.66h2.89l-4.74,14.28v7.8Z" style="fill:#b8b8b8"></path><path d="M437.51,331a5.82,5.82,0,0,1-3.18-.81,5.22,5.22,0,0,1-1.92-2.27,9.43,9.43,0,0,1-.76-3.35l2.72-.73a12.84,12.84,0,0,0,.37,2.26,4.1,4.1,0,0,0,.94,1.78,2.38,2.38,0,0,0,1.83.7,2.32,2.32,0,0,0,1.81-.67,2.73,2.73,0,0,0,.61-1.92,3.89,3.89,0,0,0-.68-2.41,12,12,0,0,0-1.71-1.84l-3.71-3.27a6.26,6.26,0,0,1-1.61-2.09,6.74,6.74,0,0,1-.52-2.79,5,5,0,0,1,1.39-3.76,5.25,5.25,0,0,1,3.79-1.34,7.28,7.28,0,0,1,2.3.34,4.11,4.11,0,0,1,1.67,1,5.15,5.15,0,0,1,1.06,1.79,10.05,10.05,0,0,1,.53,2.52l-2.61.71a11.71,11.71,0,0,0-.33-2,3,3,0,0,0-.86-1.47,2.55,2.55,0,0,0-1.76-.56,2.45,2.45,0,0,0-1.78.62,2.36,2.36,0,0,0-.64,1.81,3.55,3.55,0,0,0,.34,1.66,4.74,4.74,0,0,0,1.1,1.34l3.73,3.27a11.47,11.47,0,0,1,2.21,2.6,6.54,6.54,0,0,1,1,3.58,5.51,5.51,0,0,1-.69,2.82,4.59,4.59,0,0,1-1.86,1.82A5.89,5.89,0,0,1,437.51,331Z" style="fill:#b8b8b8"></path><path d="M447.62,330.72V310.93h-3.73v-2.29h10.43v2.29H450.7v19.79Z" style="fill:#b8b8b8"></path><path d="M456.45,330.72V308.64H465v2.29h-5.48v7.31H464v2.18h-4.44v8.09h5.53v2.21Z" style="fill:#b8b8b8"></path><path d="M467.49,330.72l.41-22.08h3l3.9,17.91,3.92-17.91h3l.41,22.08h-2.48l-.25-16-3.73,16H474l-3.71-16-.25,16Z" style="fill:#b8b8b8"></path></g><g id="freepik--device-2--inject-93"><rect x="580.89" y="157.86" width="116.94" height="220.89" rx="7.67" style="fill:#263238;stroke:#263238;stroke-linecap:round;stroke-linejoin:round"></rect><rect x="587.53" y="153.43" width="116.94" height="220.89" rx="7.67" style="fill:#FF3D3D;stroke:#263238;stroke-linecap:round;stroke-linejoin:round"></rect><path d="M657.59,165.62H634.42a1.58,1.58,0,0,1-1.58-1.58h0a1.58,1.58,0,0,1,1.58-1.58h23.17a1.58,1.58,0,0,1,1.58,1.58h0A1.58,1.58,0,0,1,657.59,165.62Z" style="fill:#263238"></path><path d="M652.32,359.8a6.32,6.32,0,1,0-6.32,6.32A6.31,6.31,0,0,0,652.32,359.8Z" style="fill:#fff;stroke:#263238;stroke-miterlimit:10;stroke-width:0.704333px"></path><rect x="642.8" y="356.6" width="6.4" height="6.4" style="fill:#263238"></rect><rect x="592.73" y="177.69" width="106.55" height="172.38" style="fill:#263238"></rect><polygon points="699.28 292.15 599.96 350.07 699.28 350.07 699.28 292.15" style="fill:#fff;opacity:0.30000000000000004"></polygon><path d="M658,257.39v-7.66l-7.64-.85a18.2,18.2,0,0,0-1.88-4.55l4.83-6-5.41-5.41-6,4.81a18.2,18.2,0,0,0-4.54-1.91l-.86-7.67h-7.65l-.85,7.64a18.39,18.39,0,0,0-4.55,1.87l-6-4.83L612,238.21l4.8,6a18.4,18.4,0,0,0-1.9,4.54l-7.68.85v7.66l7.65.85a18.17,18.17,0,0,0,1.87,4.55l-4.83,6,5.41,5.41,6-4.81a18.09,18.09,0,0,0,4.55,1.9l.85,7.68h7.65l.85-7.64a18.46,18.46,0,0,0,4.56-1.87l6,4.82,5.42-5.41-4.81-6a18,18,0,0,0,1.9-4.54Zm-25.39,5.24a9.14,9.14,0,1,1,9.13-9.13A9.14,9.14,0,0,1,632.6,262.63Z" style="fill:#FF3D3D;stroke:#263238;stroke-linecap:round;stroke-linejoin:round"></path><path d="M688.07,242l-.85-5.06-5.16.28a12.46,12.46,0,0,0-1.74-2.81l2.52-4.53-4.18-3-3.44,3.85A12.6,12.6,0,0,0,672,230l-1.42-5-5.06.85.28,5.15a12.5,12.5,0,0,0-2.81,1.75l-4.53-2.53-3,4.18,3.85,3.45a12,12,0,0,0-.76,3.22l-5,1.41.85,5.07,5.15-.28a12.5,12.5,0,0,0,1.75,2.81l-2.53,4.53,4.18,3,3.45-3.85a12.4,12.4,0,0,0,3.22.76l1.41,5,5.07-.85-.28-5.16a11.84,11.84,0,0,0,2.8-1.74l4.54,2.53,3-4.19-3.85-3.44a12.5,12.5,0,0,0,.76-3.22Zm-16.23,6.29a6.13,6.13,0,1,1,5-7.06A6.12,6.12,0,0,1,671.84,248.31Z" style="fill:#fff;stroke:#263238;stroke-linecap:round;stroke-linejoin:round"></path></g><g id="freepik--Arrow--inject-93"><polygon points="582.52 243.57 545.18 214.26 545.18 228.91 476.46 228.91 476.46 258.24 545.18 258.24 545.18 272.89 582.52 243.57" style="fill:#FF3D3D"></polygon></g><g id="freepik--Character--inject-93"><path d="M83.92,161.28s-6,5.12-5.58,9.62,6.51,15.52,7.91,18.78-1.86,11-1.86,11l20.17,6.83s-.47-2.48,0-3.57,1.24-4,1.24-4,3.1,1.08,4,1.39,4.19-1.24,4.35-2.64.15-2.32.31-4.34a38.43,38.43,0,0,1,.77-6.21c.31-.62,3.42-2.63,3.26-3.72s-3.72-5.27-4-6.67.46-4.5.15-6.21-3.26-7.6-3.26-7.6,1.87-1.55-3.25-5.74S90.13,152.75,83.92,161.28Z" style="fill:#fff;stroke:#263238;stroke-linecap:round;stroke-linejoin:round"></path><path d="M108.13,158.18c-5.12-4.19-18-5.43-24.21,3.1,0,0-6,5.12-5.58,9.62s6.51,15.52,7.91,18.78a4.53,4.53,0,0,1,.32,1.54c1,.52,3.52,1.37,8.06-.15,6.05-2,6.05-2.95,6.05-2.95s-.31-.77-.93-2.17-.31-7.29,1.86-7.29S105.8,183,105.8,183l1.55-.46-.93-4.5s3.41-4.35,4-5-3.72-5.58-3.72-5.58l4.65-3.57S113.25,162.37,108.13,158.18Z" style="fill:#828282;stroke:#263238;stroke-linecap:round;stroke-linejoin:round"></path><path d="M108.13,158.18c-5.12-4.19-18-5.43-24.21,3.1,0,0-6,5.12-5.58,9.62A22.67,22.67,0,0,0,80,176.34c9.49.69,26.74-8.85,26.74-8.85l4.65-3.57S113.25,162.37,108.13,158.18Z" style="fill:#263238;stroke:#263238;stroke-linecap:round;stroke-linejoin:round"></path><path d="M100.68,188.12s1.39,2.18,2.64,2.64,2-1.24,2-1.24" style="fill:none;stroke:#263238;stroke-linecap:round;stroke-linejoin:round"></path><path d="M114,178.19c0,1.12-.28,2-.62,2s-.62-.9-.62-2,.28-2,.62-2S114,177.08,114,178.19Z" style="fill:#263238"></path><path d="M112.16,175.71s-.31-2,2.17-1.08" style="fill:none;stroke:#263238;stroke-linecap:round;stroke-linejoin:round"></path><path d="M114.8,191.23a5.66,5.66,0,0,1-2.33-1.24" style="fill:none;stroke:#263238;stroke-linecap:round;stroke-linejoin:round"></path><polygon points="163.24 239.25 128.12 239.25 119.97 266.77 155.09 266.77 163.24 239.25" style="fill:#263238;stroke:#263238;stroke-linecap:round;stroke-linejoin:round"></polygon><rect x="111.98" y="267.06" width="42.86" height="1.86" style="fill:#fff;stroke:#263238;stroke-linecap:round;stroke-linejoin:round"></rect><path d="M105.64,438.06s3.78,5.29,6.33,6.68,8.82,3,8.82,4.64-.47,1.86-3.25,2.79-7.89.92-10.67.92a47.35,47.35,0,0,0-6.73.24,67.32,67.32,0,0,1-8.36.69c-2.32,0-2.2-6.17-2.2-6.17Z" style="fill:#fff;stroke:#263238;stroke-linecap:round;stroke-linejoin:round"></path><path d="M69.16,313.33s4.63,36.54,9.8,51,3,18.78,6.53,33.47,4.09,49.27,4.09,50.08,1.63,0,7.35-3a29,29,0,0,0,8.71-6.8,42.46,42.46,0,0,0-.82-5.17c-.55-2.18-1.63-7.9-1.63-7.9s2.17-18.51-.28-48.17S99.38,312,99.38,312,80.32,316.06,69.16,313.33Z" style="fill:#263238;stroke:#263238;stroke-linecap:round;stroke-linejoin:round"></path><path d="M95.71,447.44s3.91,4.08,6.36,5.38,10.11,4.08,10.27,5.22-.65,3.43-1.14,3.59A85.17,85.17,0,0,1,98,463.1c-6.2.16-13.37-.66-15.16-.66s-6,1.63-6.2-3.26,2.45-11.9,2.45-11.9S87.72,449.89,95.71,447.44Z" style="fill:#fff;stroke:#263238;stroke-linecap:round;stroke-linejoin:round"></path><path d="M83,322.8s2,28,3,36.42-1,26.27-3.22,38.66-3,37.91-3,37.91a2,2,0,0,0-.74,2.48A35.47,35.47,0,0,1,80.51,442s-2.73,1-2.48,2.72,1,5,1,5a53,53,0,0,0,6.69.24,45.94,45.94,0,0,0,9.42-1l2-1s.49-4,.49-6.19-2.47-4.46-2.23-5.7,1.49-8.18,2.48-13.88.25-9.17,2-15.11,11.4-41.38,11.4-41.38,4.46-41.14,4.71-46.84.25-8.18.25-8.18-7.68-6.19-9.42-6.19S83,322.8,83,322.8Z" style="fill:#263238;stroke:#263238;stroke-linecap:round;stroke-linejoin:round"></path><path d="M81.13,204.42s-22.19,18.15-22.19,21.72S67,282.77,67,285.1s-3.41,30.25-3.41,30.25,14.89,9.93,19.86,9.93,16-7.14,19.08-9.46,3.88-3.73,4.65-3.11,12.11,10.55,13.19,10.71.16-5.43.16-5.43-.47-33.2-1.09-36.93-1.55-29.17-1.55-36.61,2.79-18.78.31-23.59-8.84-8.07-8.84-8.07A42.72,42.72,0,0,0,81.13,204.42Z" style="fill:#FF3D3D;stroke:#263238;stroke-linecap:round;stroke-linejoin:round"></path><path d="M81,248.43a34.81,34.81,0,0,0,3.35,5.39" style="fill:none;stroke:#263238;stroke-linecap:round;stroke-linejoin:round"></path><path d="M72.14,229.87s3,6.8,6.16,13.25" style="fill:none;stroke:#263238;stroke-linecap:round;stroke-linejoin:round"></path><line x1="78.25" y1="251.38" x2="84.85" y2="260.17" style="fill:none;stroke:#263238;stroke-linecap:round;stroke-linejoin:round"></line><path d="M81,198.05,78,205.5s6.2.31,11.94,1.09,19.4,6.2,19.4,6.2-1.4-5.58-2.49-6.67A25.26,25.26,0,0,0,94,199.3,47.62,47.62,0,0,0,81,198.05Z" style="fill:#FF3D3D;stroke:#263238;stroke-linecap:round;stroke-linejoin:round"></path><path d="M96.21,275.66s2.3,16.91,3.59,17.48,32-15.76,34.25-16.91a11.34,11.34,0,0,1,4-1.15c.43-.14,4.3-.14,5.73-.86s2.87-2.58,3.3-2.86,3.87-.43,4.87-1.15,2.29-1.29,1.43-1.72a44.46,44.46,0,0,0-5.16-1.29s-.14-2-1.86-2.29-1.15.43-5.3-2-3.73-.43-7.31,2.15-5.31,5.45-5.74,5.59-13.47,5-13.47,5Z" style="fill:#fff;stroke:#263238;stroke-linecap:round;stroke-linejoin:round"></path><line x1="148.24" y1="267.2" x2="141.22" y2="266.34" style="fill:#fff;stroke:#263238;stroke-linecap:round;stroke-linejoin:round"></line><path d="M97.31,228.29s-4.46,12-4.23,13.62,2.35,28.19,2.35,28.19l20,.24s2.58-24.43,3.28-33.59.47-16-1.64-18.32-8.93-4.23-11.51-4.23" style="fill:#FF3D3D;stroke:#263238;stroke-linecap:round;stroke-linejoin:round"></path><path d="M93.2,265.34s.58,12.32,1.44,13.33,2.29.43,3.29,0a84.1,84.1,0,0,1,11.9-2.3c3.3-.28,4-.28,4.73-.71s1-1,1-2.44,1.29-8.6.43-10.61S99.65,258.89,93.2,265.34Z" style="fill:#FF3D3D;stroke:#263238;stroke-linecap:round;stroke-linejoin:round"></path><polygon points="107.97 261.04 108.54 276.37 109.83 276.37 109.97 260.89 107.97 261.04" style="fill:#FF3D3D;stroke:#263238;stroke-linecap:round;stroke-linejoin:round"></polygon></g></svg>
